<svg xmlns="http://www.w3.org/2000/svg" width="600" height="360" viewBox="0 0 600 360">
  <rect width="600" height="360" fill="#F58220"/>
  <g transform="translate(45, 20)">
    <!-- TB Monogram -->
    <path fill="#FFFFFF" d="M 155 35 L 295 35 L 295 72 L 230 72 L 230 205 L 155 205 Z" />
    <path fill="#FFFFFF" d="M 305 35 L 390 35 C 428 35 450 55 450 88 C 450 110 435 125 410 132 C 438 140 455 160 455 188 C 455 220 428 235 385 235 L 305 235 Z M 375 75 L 375 110 L 388 110 C 402 110 410 102 410 92 C 410 82 402 75 388 75 Z M 375 155 L 375 195 L 392 195 C 408 195 416 186 416 175 C 416 164 408 155 392 155 Z" />
    <!-- TRENDY BAZAAR text -->
    <text x="255" y="275" text-anchor="middle" fill="#FFFFFF" font-family="-apple-system, BlinkMacSystemFont, 'Segoe UI', Roboto, 'Helvetica Neue', Arial, sans-serif" font-weight="900" font-size="38" letter-spacing="5">TRENDY BAZAAR</text>
    <!-- Tagline & lines -->
    <line x1="60" y1="305" x2="115" y2="305" stroke="#FFFFFF" stroke-width="1.5" opacity="0.9" />
    <text x="255" y="310" text-anchor="middle" fill="#FFFFFF" font-family="-apple-system, BlinkMacSystemFont, 'Segoe UI', Roboto, sans-serif" font-weight="700" font-size="14" letter-spacing="2.5">CATCH THE TREND LOVE THE PRICE</text>
    <line x1="395" y1="305" x2="450" y2="305" stroke="#FFFFFF" stroke-width="1.5" opacity="0.9" />
  </g>
</svg>
